<svg width="1440" height="820" viewBox="0 0 1440 820" fill="none" xmlns="http://www.w3.org/2000/svg">
<mask id="path-1-inside-1" fill="white">
<rect width="1440" height="820" rx="10"/>
</mask>
<rect width="1440" height="820" rx="10" stroke="#56CC9D" stroke-width="120" mask="url(#path-1-inside-1)"/>
<path d="M385.525 329C380.359 330.167 376.525 332 374.025 334.5C371.525 336.833 369.859 340.5 369.025 345.5C368.192 350.5 367.775 358 367.775 368V501C364.442 500.667 361.692 500.5 359.525 500.5C357.692 500.5 354.609 500.667 350.275 501L239.525 380V452C239.525 464.333 240.025 473.25 241.025 478.75C242.025 484.083 244.192 488 247.525 490.5C251.025 493 256.775 494.833 264.775 496V501C257.942 500.5 248.609 500.25 236.775 500.25C227.942 500.25 221.025 500.5 216.025 501V496C221.192 494.833 225.025 493.083 227.525 490.75C230.025 488.25 231.692 484.5 232.525 479.5C233.359 474.5 233.775 467 233.775 457V350.5C233.775 344.167 233.275 339.583 232.275 336.75C231.442 333.917 229.859 332 227.525 331C225.192 330 221.359 329.333 216.025 329V324C221.025 324.5 227.942 324.75 236.775 324.75C245.775 324.75 253.442 324.5 259.775 324L362.025 432V373C362.025 360.667 361.525 351.833 360.525 346.5C359.525 341 357.275 337 353.775 334.5C350.442 332 344.775 330.167 336.775 329V324C343.609 324.5 352.942 324.75 364.775 324.75C373.609 324.75 380.525 324.5 385.525 324V329ZM547.48 480C549.647 485.333 551.98 489.333 554.48 492C557.147 494.5 559.73 495.833 562.23 496V501C550.23 500.5 535.064 500.25 516.73 500.25C497.73 500.25 483.73 500.5 474.73 501V496C481.064 495.667 485.564 494.917 488.23 493.75C490.897 492.417 492.23 490.167 492.23 487C492.23 484 491.23 480 489.23 475L474.48 434H423.98L419.73 445.25C414.23 459.417 411.48 470.25 411.48 477.75C411.48 484.583 413.397 489.25 417.23 491.75C421.064 494.25 426.73 495.667 434.23 496V501C421.73 500.5 410.814 500.25 401.48 500.25C393.647 500.25 387.23 500.5 382.23 501V496C386.397 495.333 390.314 492.75 393.98 488.25C397.647 483.75 401.397 476.583 405.23 466.75L460.73 324C466.064 324.333 470.48 324.5 473.98 324.5C477.314 324.5 481.647 324.333 486.98 324L547.48 480ZM472.73 429L449.98 366.5L425.98 429H472.73ZM709.557 324C708.39 342.5 707.807 359 707.807 373.5C707.807 381.167 708.057 387.167 708.557 391.5H702.807C697.307 369.667 690.223 353.917 681.557 344.25C672.89 334.583 663.557 329.75 653.557 329.75H653.307V472.75C653.307 479.75 653.973 484.833 655.307 488C656.807 491.167 659.39 493.333 663.057 494.5C666.89 495.5 672.89 496 681.057 496V501C657.557 500.5 639.307 500.25 626.307 500.25C614.473 500.25 597.307 500.5 574.807 501V496C582.973 496 588.89 495.5 592.557 494.5C596.39 493.333 598.973 491.167 600.307 488C601.807 484.833 602.557 479.75 602.557 472.75V329.75H602.307C592.14 329.75 582.723 334.583 574.057 344.25C565.557 353.75 558.557 369.5 553.057 391.5H547.307C547.807 387.167 548.057 381.167 548.057 373.5C548.057 359 547.473 342.5 546.307 324C562.14 324.5 589.39 324.75 628.057 324.75C666.557 324.75 693.723 324.5 709.557 324ZM885.611 329C880.445 330.167 876.611 332 874.111 334.5C871.611 336.833 869.945 340.5 869.111 345.5C868.278 350.5 867.861 358 867.861 368V428.25C867.861 452.25 864.445 469.917 857.611 481.25C853.111 488.75 846.445 494.5 837.611 498.5C828.945 502.5 817.695 504.5 803.861 504.5C783.695 504.5 768.028 500.5 756.861 492.5C748.695 486.667 743.195 478.833 740.361 469C737.695 459.167 736.361 445.833 736.361 429V350.5C736.361 344.167 735.945 339.583 735.111 336.75C734.278 333.917 732.611 332 730.111 331C727.778 330 723.945 329.333 718.611 329V324C728.111 324.5 742.778 324.75 762.611 324.75C782.278 324.75 797.195 324.5 807.361 324V329C801.361 329.333 796.945 330 794.111 331C791.445 332 789.611 333.917 788.611 336.75C787.611 339.583 787.111 344.167 787.111 350.5V452.5C787.111 468.5 789.611 479.75 794.611 486.25C799.611 492.583 807.528 495.75 818.361 495.75C834.195 495.75 845.445 490.167 852.111 479C858.778 467.667 862.111 451.667 862.111 431V373C862.111 360.667 861.611 351.833 860.611 346.5C859.611 341 857.361 337 853.861 334.5C850.528 332 844.861 330.167 836.861 329V324C843.695 324.5 853.028 324.75 864.861 324.75C873.695 324.75 880.611 324.5 885.611 324V329ZM1075.2 491C1070.2 496 1064.7 499.5 1058.7 501.5C1052.7 503.5 1045.7 504.5 1037.7 504.5C1026.2 504.5 1017.28 502.5 1010.95 498.5C1004.62 494.333 1000.7 487.333 999.201 477.5L995.451 452.5C993.785 440.833 991.451 432 988.451 426C985.618 420 981.285 417 975.451 417H964.201V474.5C964.201 480.833 964.618 485.417 965.451 488.25C966.451 491.083 968.118 493 970.451 494C972.785 495 976.618 495.667 981.951 496V501C972.285 500.5 958.368 500.25 940.201 500.25C920.035 500.25 905.201 500.5 895.701 501V496C901.035 495.667 904.868 495 907.201 494C909.701 493 911.368 491.083 912.201 488.25C913.035 485.417 913.451 480.833 913.451 474.5V350.5C913.451 344.167 912.951 339.583 911.951 336.75C911.118 333.917 909.535 332 907.201 331C904.868 330 901.035 329.333 895.701 329V324C905.201 324.5 919.535 324.75 938.701 324.75L967.451 324.5C970.785 324.333 974.618 324.25 978.951 324.25C1004.28 324.25 1023.12 327.833 1035.45 335C1047.95 342.167 1054.2 353.083 1054.2 367.75C1054.2 380.25 1049.53 390.917 1040.2 399.75C1030.87 408.583 1015.2 414 993.201 416C1010.2 417.167 1023.03 420.417 1031.7 425.75C1040.37 430.917 1045.7 438.583 1047.7 448.75L1052.95 474.75C1054.12 480.917 1055.53 485.167 1057.2 487.5C1058.87 489.833 1061.2 491 1064.2 491C1067.2 491 1069.78 489.917 1071.95 487.75L1075.2 491ZM977.701 329C973.868 329 970.951 329.583 968.951 330.75C967.118 331.917 965.868 334 965.201 337C964.535 340 964.201 344.5 964.201 350.5V412H970.951C982.785 412 990.868 408.417 995.201 401.25C999.535 393.917 1001.7 383.667 1001.7 370.5C1001.7 356.833 999.785 346.5 995.951 339.5C992.285 332.5 986.201 329 977.701 329ZM1218.88 459C1218.88 476 1219.46 490 1220.63 501C1209.29 500.5 1190.21 500.25 1163.38 500.25C1124.38 500.25 1095.21 500.5 1075.88 501V496C1081.21 495.667 1085.04 495 1087.38 494C1089.88 493 1091.54 491.083 1092.38 488.25C1093.21 485.417 1093.63 480.833 1093.63 474.5V350.5C1093.63 344.167 1093.13 339.583 1092.13 336.75C1091.29 333.917 1089.71 332 1087.38 331C1085.04 330 1081.21 329.333 1075.88 329V324C1095.21 324.5 1124.38 324.75 1163.38 324.75C1187.88 324.75 1205.29 324.5 1215.63 324C1214.46 339.667 1213.88 353.667 1213.88 366C1213.88 373.667 1214.13 379.667 1214.63 384H1208.88C1205.88 364.667 1200.29 350.833 1192.13 342.5C1183.96 334 1174.21 329.75 1162.88 329.75H1159.63C1155.13 329.75 1151.79 330.167 1149.63 331C1147.63 331.667 1146.21 333.083 1145.38 335.25C1144.71 337.25 1144.38 340.667 1144.38 345.5V409.5H1146.88C1155.54 409.5 1162.96 406.083 1169.13 399.25C1175.29 392.417 1179.21 384.833 1180.88 376.5H1186.63C1186.13 383.5 1185.88 391.333 1185.88 400V412C1185.88 420.5 1186.38 432.333 1187.38 447.5H1181.63C1180.13 438 1176.21 430.167 1169.88 424C1163.71 417.667 1156.04 414.5 1146.88 414.5H1144.38V479.5C1144.38 484.333 1144.71 487.833 1145.38 490C1146.21 492 1147.63 493.417 1149.63 494.25C1151.79 494.917 1155.13 495.25 1159.63 495.25H1167.88C1177.54 495.25 1186.71 490.583 1195.38 481.25C1204.04 471.75 1210.21 456.667 1213.88 436H1219.63C1219.13 442 1218.88 449.667 1218.88 459Z" fill="#56CC9D"/>
</svg>
